<mxfile host="65bd71144e">
    <diagram id="3vgi1nQrR5oLQBoBYj0g" name="第1頁">
        <mxGraphModel dx="820" dy="372" grid="1" gridSize="10" guides="1" tooltips="1" connect="1" arrows="1" fold="1" page="1" pageScale="1" pageWidth="827" pageHeight="1169" math="0" shadow="0">
            <root>
                <mxCell id="0"/>
                <mxCell id="1" parent="0"/>
                <mxCell id="2" value="用戶" style="rounded=0;whiteSpace=wrap;html=1;fillColor=none;strokeColor=#000000;fontColor=#000000;fontSize=24;" parent="1" vertex="1">
                    <mxGeometry x="320" width="160" height="60" as="geometry"/>
                </mxCell>
                <mxCell id="4" value="用戶ID&lt;br style=&quot;font-size: 24px;&quot;&gt;用戶名" style="rounded=0;whiteSpace=wrap;html=1;fillColor=none;strokeColor=#000000;fontColor=#000000;fontSize=24;" parent="1" vertex="1">
                    <mxGeometry x="320" y="60" width="160" height="90" as="geometry"/>
                </mxCell>
                <mxCell id="18" style="edgeStyle=none;html=1;entryX=0.5;entryY=0;entryDx=0;entryDy=0;fillColor=none;strokeColor=#000000;fontColor=#000000;fontSize=24;" parent="1" source="6" target="7" edge="1">
                    <mxGeometry relative="1" as="geometry"/>
                </mxCell>
                <mxCell id="6" value="發布故事&lt;br style=&quot;font-size: 24px;&quot;&gt;刪除故事&lt;br style=&quot;font-size: 24px;&quot;&gt;保存到精選&lt;br style=&quot;font-size: 24px;&quot;&gt;查看觀看者" style="whiteSpace=wrap;html=1;aspect=fixed;fillColor=none;strokeColor=#000000;fontColor=#000000;fontSize=24;" parent="1" vertex="1">
                    <mxGeometry x="320" y="150" width="160" height="160" as="geometry"/>
                </mxCell>
                <mxCell id="7" value="故事" style="rounded=0;whiteSpace=wrap;html=1;fillColor=none;strokeColor=#000000;fontColor=#000000;fontSize=24;" parent="1" vertex="1">
                    <mxGeometry x="320" y="400" width="160" height="60" as="geometry"/>
                </mxCell>
                <mxCell id="8" value="故事ID&lt;br style=&quot;font-size: 24px;&quot;&gt;內容&lt;br style=&quot;font-size: 24px;&quot;&gt;時間戳&lt;br style=&quot;font-size: 24px;&quot;&gt;觀看次數" style="whiteSpace=wrap;html=1;aspect=fixed;fillColor=none;strokeColor=#000000;fontColor=#000000;fontSize=24;" parent="1" vertex="1">
                    <mxGeometry x="320" y="460" width="160" height="160" as="geometry"/>
                </mxCell>
                <mxCell id="9" value="增加觀看&lt;br style=&quot;font-size: 24px;&quot;&gt;增加回復" style="rounded=0;whiteSpace=wrap;html=1;fillColor=none;strokeColor=#000000;fontColor=#000000;fontSize=24;" parent="1" vertex="1">
                    <mxGeometry x="320" y="620" width="160" height="90" as="geometry"/>
                </mxCell>
                <mxCell id="10" value="精選故事" style="rounded=0;whiteSpace=wrap;html=1;fillColor=none;strokeColor=#000000;fontColor=#000000;fontSize=24;" parent="1" vertex="1">
                    <mxGeometry x="80" y="800" width="160" height="60" as="geometry"/>
                </mxCell>
                <mxCell id="11" value="精選ID&lt;br style=&quot;font-size: 24px;&quot;&gt;名稱&lt;br style=&quot;font-size: 24px;&quot;&gt;故事列表" style="rounded=0;whiteSpace=wrap;html=1;fillColor=none;strokeColor=#000000;fontColor=#000000;fontSize=24;" parent="1" vertex="1">
                    <mxGeometry x="80" y="860" width="160" height="90" as="geometry"/>
                </mxCell>
                <mxCell id="15" value="添加故事&lt;br style=&quot;font-size: 24px;&quot;&gt;移除故事" style="rounded=0;whiteSpace=wrap;html=1;fillColor=none;strokeColor=#000000;fontColor=#000000;fontSize=24;" parent="1" vertex="1">
                    <mxGeometry x="80" y="950" width="160" height="70" as="geometry"/>
                </mxCell>
                <mxCell id="16" value="回復" style="rounded=0;whiteSpace=wrap;html=1;fillColor=none;strokeColor=#000000;fontColor=#000000;fontSize=24;" parent="1" vertex="1">
                    <mxGeometry x="550" y="800" width="160" height="60" as="geometry"/>
                </mxCell>
                <mxCell id="17" value="回復ID&lt;br style=&quot;font-size: 24px;&quot;&gt;內容&lt;br style=&quot;font-size: 24px;&quot;&gt;時間戳&lt;br style=&quot;font-size: 24px;&quot;&gt;用戶ID" style="whiteSpace=wrap;html=1;aspect=fixed;fillColor=none;strokeColor=#000000;fontColor=#000000;fontSize=24;" parent="1" vertex="1">
                    <mxGeometry x="550" y="860" width="160" height="160" as="geometry"/>
                </mxCell>
                <mxCell id="20" value="" style="endArrow=none;html=1;entryX=0.75;entryY=0;entryDx=0;entryDy=0;fillColor=none;strokeColor=#000000;fontColor=#000000;fontSize=24;" parent="1" target="7" edge="1">
                    <mxGeometry width="50" height="50" relative="1" as="geometry">
                        <mxPoint x="400" y="360" as="sourcePoint"/>
                        <mxPoint x="410" y="310" as="targetPoint"/>
                        <Array as="points">
                            <mxPoint x="440" y="360"/>
                        </Array>
                    </mxGeometry>
                </mxCell>
                <mxCell id="23" style="edgeStyle=none;html=1;entryX=0.5;entryY=0;entryDx=0;entryDy=0;fillColor=none;strokeColor=#000000;fontColor=#000000;fontSize=24;" parent="1" target="10" edge="1">
                    <mxGeometry relative="1" as="geometry">
                        <mxPoint x="395" y="710" as="sourcePoint"/>
                        <mxPoint x="190" y="780" as="targetPoint"/>
                        <Array as="points">
                            <mxPoint x="395" y="720"/>
                            <mxPoint x="370" y="720"/>
                            <mxPoint x="340" y="720"/>
                            <mxPoint x="280" y="720"/>
                            <mxPoint x="160" y="720"/>
                        </Array>
                    </mxGeometry>
                </mxCell>
                <mxCell id="24" value="" style="endArrow=none;html=1;entryX=0.75;entryY=0;entryDx=0;entryDy=0;fillColor=none;strokeColor=#000000;fontColor=#000000;fontSize=24;" parent="1" edge="1">
                    <mxGeometry width="50" height="50" relative="1" as="geometry">
                        <mxPoint x="160" y="760" as="sourcePoint"/>
                        <mxPoint x="200" y="800" as="targetPoint"/>
                        <Array as="points">
                            <mxPoint x="200" y="760"/>
                        </Array>
                    </mxGeometry>
                </mxCell>
                <mxCell id="25" value="1" style="text;html=1;align=center;verticalAlign=middle;resizable=0;points=[];autosize=1;fillColor=none;strokeColor=#000000;fontColor=#000000;fontSize=24;" parent="1" vertex="1">
                    <mxGeometry x="145" y="730" width="40" height="40" as="geometry"/>
                </mxCell>
                <mxCell id="26" value="*" style="text;html=1;align=center;verticalAlign=middle;resizable=0;points=[];autosize=1;fillColor=none;strokeColor=#000000;fontColor=#000000;fontSize=24;" parent="1" vertex="1">
                    <mxGeometry x="190" y="775" width="30" height="40" as="geometry"/>
                </mxCell>
                <mxCell id="27" style="edgeStyle=none;html=1;entryX=0;entryY=0.5;entryDx=0;entryDy=0;exitX=1;exitY=0.5;exitDx=0;exitDy=0;fillColor=none;strokeColor=#000000;fontColor=#000000;fontSize=24;" parent="1" source="10" target="16" edge="1">
                    <mxGeometry relative="1" as="geometry">
                        <mxPoint x="290" y="860" as="sourcePoint"/>
                        <mxPoint x="290" y="950" as="targetPoint"/>
                    </mxGeometry>
                </mxCell>
                <mxCell id="28" value="" style="endArrow=none;html=1;fillColor=none;strokeColor=#000000;fontColor=#000000;fontSize=24;" parent="1" edge="1">
                    <mxGeometry width="50" height="50" relative="1" as="geometry">
                        <mxPoint x="240" y="880" as="sourcePoint"/>
                        <mxPoint x="320" y="830" as="targetPoint"/>
                        <Array as="points">
                            <mxPoint x="320" y="880"/>
                        </Array>
                    </mxGeometry>
                </mxCell>
                <mxCell id="29" value="1" style="text;html=1;align=center;verticalAlign=middle;resizable=0;points=[];autosize=1;fillColor=none;strokeColor=#000000;fontColor=#000000;fontSize=24;" parent="1" vertex="1">
                    <mxGeometry x="315" y="825" width="40" height="40" as="geometry"/>
                </mxCell>
                <mxCell id="30" value="*" style="text;html=1;align=center;verticalAlign=middle;resizable=0;points=[];autosize=1;fillColor=none;strokeColor=#000000;fontColor=#000000;fontSize=24;" parent="1" vertex="1">
                    <mxGeometry x="240" y="875" width="30" height="40" as="geometry"/>
                </mxCell>
                <mxCell id="33" value="1" style="text;html=1;align=center;verticalAlign=middle;resizable=0;points=[];autosize=1;fillColor=none;strokeColor=#000000;fontColor=#000000;fontSize=24;" parent="1" vertex="1">
                    <mxGeometry x="385" y="325" width="40" height="40" as="geometry"/>
                </mxCell>
                <mxCell id="34" value="*" style="text;html=1;align=center;verticalAlign=middle;resizable=0;points=[];autosize=1;fillColor=none;strokeColor=#000000;fontColor=#000000;fontSize=24;" parent="1" vertex="1">
                    <mxGeometry x="430" y="375" width="30" height="40" as="geometry"/>
                </mxCell>
            </root>
        </mxGraphModel>
    </diagram>
</mxfile>